<svg xmlns="http://www.w3.org/2000/svg" width="31" height="24" viewBox="0 0 31 24"><g><g><path fill="#262626" d="M30.318 2.808c-1.088.483-2.26.81-3.49.956A6.084 6.084 0 0 0 29.5.4a12.209 12.209 0 0 1-3.86 1.48A6.08 6.08 0 0 0 15.28 7.423c-5.054-.252-9.532-2.675-12.534-6.356a6.092 6.092 0 0 0 1.882 8.121 6.05 6.05 0 0 1-2.755-.764v.08a6.087 6.087 0 0 0 4.88 5.96 6.145 6.145 0 0 1-2.746.104 6.08 6.08 0 0 0 5.677 4.223 12.191 12.191 0 0 1-7.55 2.604c-.493 0-.975-.03-1.452-.086a17.237 17.237 0 0 0 9.322 2.732c11.185 0 17.302-9.265 17.302-17.3 0-.262-.007-.527-.02-.788a12.366 12.366 0 0 0 3.033-3.146z"/></g></g></svg>