<svg xmlns="http://www.w3.org/2000/svg" width="31" height="30" viewBox="0 0 31 30"><g><g><path fill="#262626" d="M30.37 14.999a14.845 14.845 0 0 1-1.167 5.79 14.85 14.85 0 0 1-3.186 4.726 14.766 14.766 0 0 1-2.2 1.812 14.72 14.72 0 0 1-2.526 1.376c-.897.379-1.84.669-2.796.864a14.64 14.64 0 0 1-2.994.305 14.911 14.911 0 0 1-5.789-1.168 14.621 14.621 0 0 1-2.527-1.377A14.818 14.818 0 0 1 1.8 20.79a14.729 14.729 0 0 1-1.173-5.79A14.76 14.76 0 0 1 1.8 9.21c.37-.884.833-1.734 1.37-2.528a15.14 15.14 0 0 1 1.812-2.196 14.794 14.794 0 0 1 2.203-1.817A14.641 14.641 0 0 1 12.503.43a14.89 14.89 0 0 1 5.992 0c.956.195 1.9.487 2.796.865.882.372 1.732.836 2.527 1.374.787.53 1.526 1.142 2.199 1.817a14.76 14.76 0 0 1 1.812 2.196 14.746 14.746 0 0 1 2.24 5.324c.202.98.301 1.988.301 2.993zM25.31 6.93c-.027.035-2.06 2.98-7.076 5.029.294.604.578 1.22.844 1.843.091.216.184.435.273.652 4.363-.548 8.661.378 8.846.415a12.658 12.658 0 0 0-2.887-7.94zm-9.809-4.632c-1.032 0-2.03.126-2.994.358.192.25 2.576 3.42 4.746 7.409 4.794-1.795 6.604-4.548 6.637-4.598A12.65 12.65 0 0 0 15.501 2.3zm-3.075.376a.41.41 0 0 0 .032-.006v-.003a.116.116 0 0 1-.032.01zm-.008.002l.008-.002-.008.002zM3.07 12.382c.337.004 5.63.069 11.726-1.551-2.197-3.906-4.548-7.093-4.713-7.318a12.723 12.723 0 0 0-7.013 8.87zm2.982 11.105l-.002-.006s3.473-6.169 10.328-8.384c.169-.052.335-.105.503-.148a39.889 39.889 0 0 0-1.033-2.16c-6.536 1.955-12.815 1.812-13.04 1.81-.004.131-.01.264-.01.4 0 3.262 1.234 6.235 3.254 8.488zm14.405 3.21c-.186-1.114-.923-5.002-2.713-9.645-.026.004-.053.014-.082.024-7.533 2.627-9.967 7.936-9.967 7.936s-.12-.086-.285-.222a12.66 12.66 0 0 0 8.091 2.912c1.76 0 3.434-.36 4.956-1.005zm7.585-9.68c-.265-.086-3.818-1.21-7.917-.557 1.666 4.58 2.343 8.307 2.472 9.071a12.683 12.683 0 0 0 5.445-8.514z"/></g></g></svg>