<?xml version="1.0" standalone="no"?>
<!DOCTYPE svg PUBLIC "-//W3C//DTD SVG 20010904//EN"
 "http://www.w3.org/TR/2001/REC-SVG-20010904/DTD/svg10.dtd">
<svg version="1.0" xmlns="http://www.w3.org/2000/svg"
 width="1408.000000pt" height="1408.000000pt" viewBox="0 0 1408.000000 1408.000000"
 preserveAspectRatio="xMidYMid meet">
<metadata>
Created by potrace 1.14, written by Peter Selinger 2001-2017
</metadata>
<g transform="translate(0.000000,1408.000000) scale(0.100000,-0.100000)"
fill="#000000" stroke="none">
<path d="M3504 11095 c-21 -33 -44 -71 -52 -85 -7 -14 -20 -32 -28 -41 -8 -8
-14 -21 -14 -27 0 -6 -6 -17 -13 -24 -7 -7 -54 -80 -104 -163 -51 -82 -97
-155 -102 -162 -6 -7 -11 -15 -11 -17 0 -3 -20 -37 -45 -76 -25 -39 -45 -72
-45 -73 0 -6 -189 -322 -199 -334 -6 -7 -11 -14 -11 -16 0 -3 -28 -54 -63
-114 -35 -60 -67 -116 -70 -124 -4 -8 -16 -27 -27 -44 -11 -16 -25 -42 -31
-57 -6 -16 -14 -28 -18 -28 -3 0 -12 -15 -20 -32 -8 -18 -17 -35 -20 -38 -7
-6 -27 -40 -53 -90 -10 -19 -31 -57 -48 -85 -16 -27 -37 -66 -48 -85 -10 -19
-29 -53 -42 -75 -12 -22 -38 -67 -57 -100 -19 -33 -38 -67 -43 -75 -13 -20
-61 -105 -101 -176 -17 -33 -35 -61 -38 -64 -3 -3 -22 -35 -41 -72 -19 -38
-38 -68 -43 -68 -4 0 -6 -3 -5 -7 2 -5 -19 -45 -45 -90 -26 -45 -47 -86 -47
-92 0 -5 -3 -11 -7 -13 -7 -2 -92 -147 -203 -342 -43 -77 -81 -142 -90 -156
-6 -8 -14 -24 -20 -35 -5 -11 -21 -38 -35 -60 -14 -22 -28 -47 -32 -55 -4 -8
-20 -37 -36 -65 -17 -27 -40 -68 -52 -90 -13 -22 -110 -189 -215 -370 -106
-182 -204 -350 -218 -375 -14 -25 -33 -58 -43 -75 -10 -16 -28 -49 -40 -72
-13 -24 -26 -43 -31 -43 -4 0 -8 -5 -8 -10 0 -6 -15 -35 -33 -66 -17 -31 -41
-72 -53 -92 -11 -21 -66 -115 -122 -209 -56 -95 -102 -177 -102 -183 0 -5 -3
-10 -7 -10 -5 0 -13 -10 -19 -23 -6 -12 -34 -62 -63 -112 -29 -49 -69 -117
-88 -150 -43 -77 -57 -99 -63 -105 -3 -3 -16 -25 -29 -50 -27 -52 -61 -113
-98 -179 -99 -177 -229 -446 -238 -493 -4 -20 112 -279 127 -286 5 -2 8 -9 8
-16 0 -7 11 -30 25 -50 13 -20 22 -36 20 -36 -3 0 5 -17 18 -38 13 -20 48 -82
77 -137 29 -55 56 -104 60 -110 15 -20 71 -120 77 -137 3 -10 9 -18 14 -18 5
0 9 -4 9 -10 0 -5 41 -78 90 -161 50 -82 90 -153 90 -156 0 -2 10 -19 22 -36
13 -18 23 -34 23 -37 1 -3 12 -23 26 -45 15 -22 36 -58 48 -80 53 -98 85 -150
93 -153 4 -2 8 -9 8 -16 0 -8 9 -25 20 -38 10 -14 17 -28 14 -30 -2 -3 2 -11
11 -18 8 -7 15 -19 15 -26 0 -8 5 -14 10 -14 6 0 10 -5 10 -11 0 -6 27 -56 60
-111 33 -54 60 -101 60 -104 0 -3 14 -25 30 -50 17 -24 27 -44 23 -44 -4 0 -3
-4 2 -8 6 -4 16 -18 23 -32 7 -14 32 -58 57 -98 25 -41 45 -78 45 -83 0 -12
-119 -11 1288 -12 963 -2 1246 1 1254 10 5 7 63 104 128 215 66 112 125 210
132 218 7 8 11 15 9 15 -3 0 8 19 22 42 15 24 27 44 27 46 0 4 117 204 150
257 5 8 32 55 61 104 57 97 112 184 129 204 6 6 8 12 5 12 -3 0 5 15 19 33 15
19 26 39 26 45 0 7 4 12 8 12 5 0 19 20 32 45 13 25 27 45 32 45 4 0 8 7 8 15
0 8 5 15 10 15 6 0 10 4 10 10 0 12 100 154 112 158 4 2 8 10 8 17 0 7 7 15
15 19 8 3 15 1 15 -4 0 -6 6 -10 13 -10 17 0 86 -79 159 -182 32 -45 64 -90
71 -99 7 -8 17 -24 23 -35 6 -10 43 -68 81 -129 66 -104 172 -289 243 -420 17
-33 37 -66 42 -72 6 -7 7 -13 4 -13 -4 0 1 -12 12 -28 10 -15 26 -40 34 -57
21 -43 87 -164 156 -287 33 -59 57 -110 54 -113 -3 -3 0 -5 6 -5 7 0 12 -7 12
-15 0 -11 12 -15 43 -16 55 -1 295 -7 577 -14 230 -6 395 -10 765 -19 544 -14
701 -18 840 -22 83 -3 156 -5 163 -5 6 0 27 0 45 1 17 0 57 -1 87 -3 60 -2 82
11 110 68 8 17 21 36 28 43 6 7 12 18 12 23 0 5 19 39 42 76 22 38 49 83 60
101 51 89 265 454 345 587 60 100 105 171 122 191 4 5 14 21 21 35 7 13 19 28
26 32 8 4 14 13 14 18 0 8 22 42 77 114 88 115 167 201 205 221 27 14 27 13
81 -64 45 -64 88 -132 237 -372 61 -99 310 -533 310 -540 0 -6 5 -10 10 -10 6
0 10 -5 10 -10 0 -6 20 -43 44 -83 24 -39 54 -92 68 -117 37 -67 98 -172 116
-200 9 -14 17 -28 17 -32 0 -16 25 -18 241 -24 494 -11 586 -14 779 -19 353
-9 1081 -26 1232 -28 62 -1 113 -6 113 -10 0 -5 5 -5 11 -1 11 6 39 6 172 1
32 -1 61 0 65 3 6 4 18 25 66 115 6 11 13 22 16 25 3 3 18 30 33 60 39 76 81
154 87 160 3 3 13 20 22 38 18 34 81 151 131 242 16 30 50 90 73 132 24 43 44
82 44 88 0 5 5 10 10 10 6 0 10 9 10 19 0 11 4 21 8 23 5 1 46 72 93 156 46
84 93 169 105 190 23 40 83 151 118 217 11 22 23 42 26 45 4 4 26 46 107 200
12 25 23 50 23 57 0 6 4 13 9 15 9 3 129 245 180 362 27 63 27 89 -5 167 -39
95 -165 344 -224 439 -5 8 -19 34 -31 58 -13 23 -26 42 -31 42 -4 0 -8 4 -8
10 0 5 -31 61 -70 125 -38 64 -70 118 -70 121 0 3 -5 10 -10 17 -6 7 -28 41
-48 77 -21 36 -65 110 -97 165 -32 55 -87 150 -122 210 -36 61 -68 117 -73
125 -5 8 -24 40 -42 70 -17 30 -36 58 -42 62 -6 4 -8 8 -3 8 4 0 -4 18 -18 40
-14 22 -25 44 -25 50 0 5 -4 10 -8 10 -5 0 -14 12 -21 28 -11 24 -126 222
-170 292 -8 14 -16 27 -16 30 0 3 -8 17 -18 33 -36 57 -50 81 -79 136 -17 31
-38 64 -46 74 -8 9 -12 17 -8 17 4 0 -2 12 -13 26 -12 15 -21 32 -21 40 0 7
-3 14 -7 16 -5 2 -15 17 -24 33 -9 17 -34 62 -57 100 -22 39 -41 75 -42 80 -1
6 -7 17 -14 25 -7 8 -39 62 -72 120 -32 58 -61 107 -64 110 -3 3 -13 21 -24
40 -10 19 -27 50 -37 68 -31 52 -58 99 -80 140 -12 20 -45 78 -74 127 -29 50
-62 106 -73 125 -11 19 -59 103 -107 185 -48 83 -95 164 -105 180 -10 17 -64
109 -120 205 -57 96 -110 186 -118 200 -7 14 -24 41 -35 61 -92 155 -154 262
-180 309 -16 30 -35 61 -41 69 -14 18 -33 50 -46 80 -6 13 -19 35 -29 50 -10
14 -29 46 -43 71 -14 25 -84 148 -157 273 -72 126 -131 233 -131 238 0 5 -4 9
-9 9 -5 0 -11 8 -14 18 -4 9 -19 40 -34 67 -31 55 -131 229 -150 260 -7 11
-16 27 -20 35 -4 8 -26 48 -50 88 -24 40 -43 77 -43 81 0 5 -3 11 -7 13 -5 2
-19 23 -32 48 -13 25 -30 52 -37 60 -11 13 -167 15 -1306 14 -711 -1 -1296 -2
-1299 -3 -3 -1 -21 -31 -40 -68 -19 -38 -36 -70 -39 -73 -3 -3 -19 -32 -36
-65 -37 -71 -105 -200 -144 -270 -15 -27 -47 -88 -71 -135 -24 -47 -50 -91
-56 -98 -7 -8 -11 -18 -8 -23 4 -5 2 -9 -3 -9 -5 0 -12 -8 -15 -17 -3 -10 -19
-40 -35 -68 -16 -27 -38 -66 -49 -85 -30 -52 -117 -194 -123 -200 -3 -3 -9
-12 -15 -21 -42 -68 -97 -146 -151 -214 -110 -138 -124 -145 -175 -84 -19 23
-39 47 -45 53 -9 10 -155 213 -186 260 -7 10 -21 29 -30 41 -10 13 -18 26 -18
29 0 4 -5 12 -10 19 -24 27 -217 335 -260 414 -9 15 -31 53 -51 83 -19 30 -38
62 -42 70 -4 8 -17 31 -29 51 -13 20 -38 63 -57 95 -19 33 -38 61 -41 64 -4 3
-13 20 -21 38 -8 17 -17 32 -21 32 -5 0 -8 4 -8 10 0 13 -69 120 -78 120 -4 1
-88 3 -187 5 -283 7 -603 15 -810 20 -104 3 -273 7 -375 10 -102 2 -273 6
-380 9 -107 3 -316 8 -465 12 -148 3 -284 7 -301 8 -28 2 -35 -4 -70 -59z
m6734 -520 c9 -16 19 -32 22 -35 3 -3 11 -15 18 -27 26 -48 37 -67 45 -77 18
-24 75 -126 71 -126 -3 0 3 -9 13 -19 10 -11 34 -49 53 -85 19 -36 38 -66 42
-66 4 0 8 -5 8 -10 0 -6 12 -29 26 -52 15 -23 38 -62 53 -88 14 -25 75 -126
134 -225 60 -99 112 -187 117 -195 5 -8 31 -54 59 -101 28 -48 51 -92 51 -98
0 -6 3 -11 8 -11 4 0 12 -10 18 -23 6 -12 44 -78 84 -147 40 -69 81 -139 91
-157 10 -17 29 -50 43 -72 15 -22 26 -42 26 -45 0 -2 36 -64 79 -139 43 -74
90 -154 103 -178 34 -60 46 -81 198 -344 74 -126 140 -241 147 -255 8 -14 23
-38 33 -55 11 -16 24 -40 29 -52 6 -12 22 -41 37 -65 16 -24 37 -61 49 -83 11
-22 33 -59 48 -83 15 -24 33 -55 40 -70 6 -15 14 -29 17 -32 12 -10 130 -220
130 -230 0 -5 4 -10 9 -10 5 0 11 -8 14 -17 4 -10 20 -40 37 -68 17 -27 35
-59 40 -70 6 -11 19 -33 30 -50 11 -16 25 -41 31 -55 6 -14 16 -32 23 -40 7
-8 27 -40 43 -70 17 -30 53 -93 80 -140 28 -47 60 -103 73 -125 13 -22 59
-100 102 -172 43 -73 78 -137 78 -143 0 -5 4 -10 9 -10 5 0 11 -8 14 -17 6
-19 13 -30 140 -242 45 -75 82 -138 82 -141 1 -3 19 -33 40 -67 22 -35 54 -86
70 -114 27 -45 85 -128 138 -195 34 -44 38 -79 11 -115 -13 -18 -24 -29 -24
-25 0 5 -6 4 -13 -2 -7 -6 -28 -14 -47 -17 -18 -3 -37 -8 -41 -10 -4 -3 -33
-8 -65 -11 -33 -3 -72 -8 -89 -11 -16 -2 -311 -7 -655 -9 l-625 -5 -60 112
c-102 191 -135 252 -166 302 -16 26 -29 54 -29 61 0 8 -4 16 -8 18 -5 2 -24
32 -44 68 -40 74 -73 132 -99 175 -11 17 -22 37 -26 45 -4 8 -35 63 -70 122
-35 59 -63 112 -63 117 0 6 -4 11 -8 11 -4 0 -18 19 -30 43 -12 23 -38 69 -57
102 -20 33 -38 68 -42 78 -3 9 -9 17 -13 17 -4 0 -10 8 -14 18 -3 9 -13 31
-23 47 -10 17 -36 62 -58 100 -22 39 -44 78 -50 87 -90 155 -181 315 -183 325
-2 7 -8 13 -13 13 -5 0 -9 4 -9 10 0 5 -22 47 -50 94 -27 47 -50 89 -50 95 0
6 -4 11 -9 11 -5 0 -11 8 -14 18 -4 9 -17 35 -30 57 -20 34 -172 294 -227 390
-9 17 -31 54 -49 83 -17 29 -31 57 -31 62 0 6 -3 10 -7 10 -5 0 -13 10 -18 23
-17 35 -59 111 -66 117 -5 4 -44 72 -107 185 -9 17 -21 33 -27 37 -5 4 -6 8
-2 8 4 0 -6 20 -23 44 -16 25 -30 49 -30 55 0 6 -4 11 -10 11 -5 0 -10 5 -10
11 0 6 -15 37 -34 68 -37 61 -63 106 -92 161 -11 19 -22 37 -25 40 -4 3 -19
28 -33 55 -15 28 -36 64 -47 80 -10 17 -27 46 -36 65 -9 19 -22 42 -29 50 -6
8 -23 35 -36 60 -48 86 -70 125 -103 180 -18 30 -45 78 -60 105 -58 105 -79
141 -102 177 -12 21 -23 42 -23 48 0 5 -4 10 -8 10 -5 0 -14 16 -22 35 -8 19
-17 35 -22 35 -4 0 -8 4 -8 9 0 8 -165 292 -248 427 -18 28 -32 56 -32 62 0 6
-4 12 -8 14 -8 3 -46 66 -110 181 -13 23 -27 44 -30 47 -4 3 -16 21 -26 40
-10 19 -28 50 -38 68 l-20 32 802 -2 801 -3 17 -30z m-5213 11 c94 -4 229 -9
300 -12 72 -3 182 -7 245 -9 216 -8 229 -9 244 -30 8 -11 45 -73 83 -139 37
-65 76 -132 86 -150 10 -17 27 -47 38 -66 11 -19 28 -48 39 -65 11 -16 23 -37
27 -45 4 -8 29 -53 56 -100 28 -47 80 -137 117 -200 37 -63 97 -166 133 -229
37 -62 67 -117 67 -121 0 -4 11 -20 25 -36 14 -16 25 -33 25 -38 0 -4 23 -45
50 -91 28 -46 50 -88 50 -94 0 -6 3 -11 8 -11 4 0 12 -10 18 -23 6 -12 44 -78
84 -147 40 -68 81 -138 90 -155 9 -16 54 -93 99 -169 44 -76 81 -140 81 -142
0 -2 115 -200 130 -224 6 -8 16 -26 23 -40 6 -14 15 -29 20 -35 4 -5 55 -93
114 -195 58 -102 113 -196 122 -210 8 -14 16 -27 16 -30 2 -11 68 -120 76
-126 5 -3 7 -10 4 -15 -4 -5 -1 -9 4 -9 6 0 11 -4 11 -9 0 -5 19 -42 43 -83
24 -40 55 -93 69 -118 14 -25 40 -71 59 -103 19 -33 43 -75 55 -95 26 -48 56
-99 145 -255 109 -190 114 -198 141 -247 38 -69 87 -153 99 -170 5 -8 15 -27
22 -42 6 -16 15 -28 19 -28 4 0 8 -4 8 -10 0 -7 57 -111 110 -200 15 -24 184
-333 253 -460 22 -41 67 -122 99 -179 32 -57 58 -105 58 -108 0 -2 18 -35 40
-73 l39 -70 -789 0 -790 1 -50 85 c-27 46 -50 87 -50 91 0 4 -6 14 -14 22 -8
9 -26 39 -41 66 -42 81 -77 140 -87 146 -5 3 -8 8 -7 10 2 2 -40 79 -94 171
-53 92 -97 172 -97 178 0 5 -4 10 -10 10 -5 0 -10 4 -10 9 0 5 -22 47 -50 93
-27 45 -55 95 -61 111 -6 15 -15 27 -20 27 -5 0 -9 6 -9 13 0 7 -13 34 -30 60
-16 26 -40 66 -52 89 -13 24 -36 62 -51 85 -15 24 -27 45 -27 48 0 3 -11 22
-23 43 -13 20 -36 58 -50 85 -15 26 -39 68 -54 95 -14 26 -37 64 -50 84 -12
21 -23 42 -23 48 0 5 -4 10 -10 10 -5 0 -10 4 -10 9 0 8 -68 130 -121 216 -10
17 -25 44 -34 60 -9 17 -21 39 -28 50 -6 11 -30 52 -52 90 -22 39 -45 79 -52
90 -7 11 -15 27 -19 35 -4 8 -10 17 -13 20 -3 3 -13 19 -22 35 -37 72 -64 120
-70 125 -3 3 -16 25 -30 50 -13 25 -26 47 -29 50 -3 3 -14 21 -24 40 -35 65
-129 225 -147 252 -11 15 -24 38 -29 50 -6 13 -19 37 -29 53 -36 60 -181 307
-181 311 0 1 -13 23 -30 47 -16 25 -30 48 -30 51 0 4 -27 51 -60 105 -33 55
-60 104 -60 110 0 6 -3 11 -7 11 -5 0 -13 10 -19 23 -6 12 -57 101 -114 197
-57 96 -114 195 -128 220 -14 24 -49 84 -78 133 -30 49 -54 91 -54 93 0 2 -31
55 -70 119 -38 64 -70 120 -70 125 0 6 -4 10 -8 10 -4 0 -13 12 -19 28 -13 31
-55 105 -64 112 -3 3 -14 21 -24 40 -10 19 -28 51 -40 70 -12 19 -22 37 -21
40 0 3 -9 19 -21 36 -20 28 -105 174 -176 303 l-29 53 23 24 c24 23 52 31 159
43 67 7 405 6 635 -3z m3157 -344 c66 -74 268 -384 268 -412 0 -6 3 -10 8 -10
4 0 12 -10 18 -23 15 -33 58 -111 64 -117 3 -3 11 -15 18 -27 6 -13 18 -33 25
-45 6 -13 14 -25 17 -28 3 -3 11 -16 17 -30 14 -28 40 -74 96 -168 20 -35 37
-67 37 -73 0 -5 5 -9 10 -9 6 0 10 -4 10 -9 0 -5 27 -55 60 -111 33 -56 60
-103 60 -105 0 -2 18 -33 40 -69 22 -36 40 -70 40 -76 0 -5 5 -10 10 -10 6 0
10 -5 10 -11 0 -6 22 -48 49 -93 27 -44 64 -108 82 -141 18 -33 35 -62 39 -65
4 -3 13 -18 22 -35 14 -29 71 -128 315 -543 62 -107 113 -198 113 -203 0 -5 5
-9 10 -9 6 0 10 -4 10 -9 0 -5 76 -140 170 -300 94 -160 170 -296 170 -301 0
-6 5 -10 10 -10 6 0 10 -4 10 -9 0 -10 80 -153 90 -161 4 -3 13 -20 21 -37 8
-18 17 -33 21 -33 5 0 8 -5 8 -11 0 -6 31 -63 69 -127 68 -116 91 -155 139
-242 14 -25 47 -82 73 -128 27 -45 49 -87 49 -92 0 -6 5 -10 10 -10 6 0 10 -9
10 -19 0 -11 4 -21 8 -23 5 -1 34 -48 64 -103 31 -55 68 -120 83 -145 14 -25
28 -53 32 -62 3 -10 9 -18 14 -18 5 0 9 -5 9 -11 0 -6 30 -66 68 -132 37 -67
74 -136 82 -152 8 -17 19 -33 25 -37 5 -4 7 -8 2 -8 -4 0 3 -17 16 -37 13 -21
46 -86 75 -144 118 -243 145 -329 128 -409 -9 -43 -58 -173 -67 -180 -4 -3
-11 -19 -15 -35 -4 -17 -10 -34 -14 -40 -4 -5 -38 -68 -75 -140 -74 -140 -205
-372 -227 -400 -21 -26 -268 -429 -268 -437 0 -4 -4 -8 -10 -8 -5 0 -10 -6
-10 -14 0 -23 -19 -29 -35 -12 -8 8 -15 17 -15 20 0 3 -31 58 -70 122 -38 64
-70 119 -70 124 0 5 -3 10 -7 12 -5 2 -15 17 -24 33 -16 29 -99 171 -196 334
-22 37 -163 275 -183 310 -9 14 -35 60 -60 101 -24 41 -43 77 -41 79 1 2 -1 7
-6 10 -9 6 -59 86 -101 162 -39 71 -47 84 -52 89 -10 10 -41 65 -47 83 -3 9
-9 17 -14 17 -5 0 -9 5 -9 12 0 9 -52 103 -110 198 -16 26 -107 183 -128 220
-11 19 -43 76 -72 125 -74 127 -89 153 -123 215 -17 30 -37 61 -44 68 -7 7
-13 17 -13 22 0 5 -20 43 -45 83 -25 41 -45 78 -45 82 0 4 -8 19 -19 33 -10
15 -28 44 -40 65 -11 20 -30 53 -41 72 -11 19 -30 52 -41 73 -12 20 -43 74
-70 120 -27 45 -49 87 -49 92 0 6 -4 10 -9 10 -5 0 -11 8 -15 18 -7 22 -42 82
-56 96 -5 5 -10 18 -10 28 0 10 -4 18 -8 18 -5 0 -18 19 -31 43 -12 23 -31 56
-41 72 -11 17 -26 44 -35 60 -8 17 -26 48 -40 70 -14 22 -28 47 -32 55 -4 8
-16 31 -28 50 -12 19 -35 60 -52 90 -16 30 -64 114 -106 187 -42 72 -85 147
-95 165 -11 18 -34 58 -52 88 -32 54 -50 85 -89 154 -11 19 -31 52 -44 73 -13
21 -35 59 -49 84 -45 80 -53 93 -65 107 -7 7 -13 20 -13 28 0 8 -4 14 -9 14
-5 0 -11 6 -13 13 -3 11 -75 134 -120 205 -10 15 -25 41 -34 57 -9 17 -50 80
-90 142 -41 62 -78 123 -83 135 -22 57 7 208 64 333 12 28 32 73 45 100 43 98
85 180 93 183 4 2 7 12 7 23 0 10 3 19 8 19 4 0 23 34 42 75 19 41 38 75 42
75 4 0 8 9 8 20 0 11 4 20 9 20 5 0 13 10 17 23 3 12 31 64 60 115 30 52 54
98 54 103 0 5 5 9 10 9 6 0 10 6 10 13 0 7 20 44 45 81 25 38 45 71 45 73 0 5
78 120 99 146 24 30 54 57 62 57 4 0 27 -22 51 -48z m-4409 -68 c7 -12 31 -53
55 -90 24 -38 47 -76 52 -84 52 -82 110 -183 110 -190 0 -5 3 -10 8 -12 4 -1
14 -15 22 -30 8 -16 50 -88 94 -160 43 -73 88 -149 98 -168 11 -19 29 -47 39
-62 11 -14 19 -29 19 -32 0 -3 18 -35 40 -71 22 -36 40 -69 40 -73 0 -4 5 -13
12 -20 7 -7 26 -37 43 -67 16 -30 158 -274 315 -541 157 -268 286 -493 288
-501 2 -7 8 -13 13 -13 5 0 9 -4 9 -9 0 -7 52 -99 117 -206 7 -11 16 -27 20
-35 4 -8 33 -59 65 -113 32 -54 58 -103 58 -108 0 -5 5 -9 10 -9 6 0 10 -4 10
-9 0 -4 19 -41 43 -80 46 -79 81 -139 106 -186 9 -16 29 -49 44 -73 15 -24 32
-53 38 -65 5 -12 23 -44 41 -72 17 -27 36 -59 42 -70 31 -56 291 -501 296
-505 3 -3 14 -23 25 -45 11 -22 22 -42 25 -45 3 -3 10 -14 16 -25 6 -11 60
-103 119 -205 60 -102 115 -196 122 -210 8 -14 23 -38 33 -55 11 -16 23 -36
26 -44 12 -23 362 -625 371 -636 24 -30 64 -118 57 -124 -5 -3 -21 -28 -35
-56 -53 -103 -103 -190 -111 -193 -4 -2 -6 -7 -3 -12 3 -5 0 -14 -7 -22 -7 -7
-23 -33 -36 -58 -36 -69 -66 -124 -72 -130 -3 -3 -13 -21 -22 -40 -32 -66 -99
-182 -184 -318 -46 -76 -90 -146 -97 -157 -6 -11 -14 -22 -17 -25 -3 -3 -27
-36 -55 -74 -77 -106 -171 -198 -198 -194 -14 2 -40 29 -74 78 -28 41 -52 78
-52 82 -1 4 -23 42 -51 85 -27 43 -50 83 -50 90 0 6 -4 13 -8 15 -4 2 -47 71
-96 153 -49 83 -99 167 -112 187 -13 21 -24 40 -24 43 0 3 -12 24 -27 48 -15
23 -33 51 -39 62 -6 11 -23 43 -39 70 -15 28 -34 57 -41 66 -8 8 -14 19 -14
23 0 5 -22 45 -49 90 -27 44 -61 104 -77 131 -15 28 -36 64 -46 80 -10 17 -26
46 -35 65 -10 19 -21 37 -25 38 -5 2 -8 9 -8 17 0 7 -7 18 -15 25 -8 7 -12 16
-9 21 3 5 1 9 -5 9 -5 0 -11 6 -13 13 -2 10 -100 182 -143 255 -6 9 -23 40
-38 67 -15 28 -36 64 -46 80 -18 30 -48 83 -97 173 -15 26 -30 52 -34 57 -4 6
-24 42 -45 80 -21 39 -44 77 -51 86 -8 8 -14 18 -14 22 0 3 -17 34 -37 69 -21
35 -38 65 -38 68 0 3 -8 16 -17 30 -19 29 -225 387 -271 470 -16 30 -38 66
-47 80 -9 14 -20 32 -23 40 -4 8 -16 29 -27 45 -11 17 -23 37 -27 45 -12 26
-202 340 -234 386 -33 49 -32 48 -62 33 -50 -27 -241 -291 -453 -624 -49 -77
-91 -142 -95 -145 -3 -3 -12 -16 -19 -30 -11 -23 -52 -89 -218 -353 -34 -54
-62 -100 -62 -102 0 -3 -20 -36 -45 -75 -25 -39 -45 -75 -45 -80 0 -6 -5 -10
-11 -10 -5 0 -8 -4 -5 -9 4 -5 3 -11 -2 -13 -6 -2 -177 -283 -228 -373 -52
-94 -70 -125 -91 -155 -12 -19 -23 -40 -23 -46 0 -7 -4 -14 -8 -16 -5 -1 -22
-28 -38 -58 -46 -85 -58 -104 -69 -112 -5 -4 -6 -8 -1 -8 5 0 2 -8 -6 -17 -8
-10 -28 -43 -44 -73 -16 -30 -31 -57 -35 -60 -3 -3 -63 -105 -135 -228 -119
-205 -203 -347 -243 -414 -62 -103 -101 -172 -101 -178 0 -4 -7 -13 -15 -20
-9 -7 -23 -29 -32 -49 -9 -20 -20 -38 -23 -41 -3 -3 -32 -50 -65 -105 -33 -55
-63 -101 -67 -103 -5 -2 -8 -9 -8 -16 0 -7 -8 -22 -17 -33 -10 -12 -29 -39
-43 -62 -14 -22 -28 -41 -32 -41 -3 0 -17 17 -29 38 -13 20 -25 39 -28 42 -4
3 -11 14 -18 25 -6 11 -43 73 -82 137 -39 64 -71 122 -71 128 0 5 -4 10 -10
10 -5 0 -10 7 -10 15 0 8 -4 15 -8 15 -4 0 -13 12 -19 28 -12 27 -19 39 -99
177 -23 39 -53 91 -68 117 -14 27 -38 69 -52 95 -15 27 -30 53 -34 58 -4 6
-23 39 -42 75 -20 36 -45 82 -57 103 -137 241 -166 293 -166 302 0 6 17 39 38
74 21 35 47 78 57 95 36 65 321 542 333 559 6 9 23 37 37 62 14 25 75 128 135
230 140 237 143 242 184 317 18 35 37 65 41 68 3 3 13 19 22 35 25 50 53 100
58 105 9 9 30 44 39 66 5 12 24 45 43 75 18 30 40 66 48 81 8 15 39 68 68 118
28 49 52 92 52 95 0 3 5 11 10 18 18 20 170 286 170 296 0 5 4 11 8 13 7 3 18
20 89 148 14 25 29 50 33 55 4 6 17 26 28 46 61 110 118 204 124 207 5 2 8 8
8 12 0 5 14 33 31 62 18 29 42 71 54 93 13 22 44 74 69 115 25 41 51 86 58
100 10 20 106 184 158 270 28 48 229 388 249 423 13 23 36 60 50 82 14 22 31
49 37 60 34 62 57 100 103 173 28 45 51 86 51 91 0 5 4 11 8 13 5 2 23 30 42
63 18 33 37 62 40 65 3 3 21 30 39 60 70 119 203 324 213 328 4 2 8 10 8 18 0
8 5 14 10 14 6 0 10 5 10 11 0 18 111 162 168 217 52 50 56 52 74 35 10 -9 24
-27 31 -39z m-18 -3806 c22 -32 45 -67 50 -76 6 -9 22 -36 38 -59 15 -23 27
-46 27 -52 0 -6 5 -11 10 -11 6 0 10 -7 10 -15 0 -8 5 -15 10 -15 6 0 10 -4
10 -10 0 -5 15 -33 33 -63 17 -29 37 -61 44 -72 16 -26 122 -209 148 -254 11
-20 51 -87 88 -149 37 -62 67 -116 67 -121 0 -5 4 -11 8 -13 9 -4 92 -146 92
-158 0 -5 4 -10 8 -12 5 -1 25 -33 46 -70 33 -60 36 -69 24 -90 -7 -13 -17
-26 -21 -29 -5 -3 -9 -10 -9 -15 0 -12 -192 -396 -251 -503 -26 -46 -47 -85
-47 -87 0 -2 -18 -33 -40 -69 -22 -36 -40 -68 -40 -70 0 -3 -11 -22 -23 -43
-47 -73 -57 -92 -55 -95 2 -1 -3 -9 -10 -17 -7 -8 -45 -67 -85 -130 -40 -63
-109 -170 -155 -238 -45 -67 -82 -125 -82 -128 0 -2 -5 -10 -10 -17 -6 -7 -43
-60 -82 -120 l-71 -107 -346 -1 c-190 0 -355 0 -366 0 -19 1 -133 0 -165 0 -8
0 -172 0 -364 0 l-348 1 18 30 c80 131 300 498 313 522 9 16 21 37 26 46 75
123 145 246 145 253 0 5 4 9 9 9 5 0 11 8 14 18 7 22 39 75 50 83 5 3 8 9 8
13 -1 3 35 67 79 142 44 74 80 137 80 139 0 2 14 24 30 48 17 25 30 47 30 50
0 3 32 58 70 123 39 64 70 121 70 125 0 5 4 9 10 9 5 0 9 3 8 8 -1 4 10 26 25
49 15 24 27 45 27 48 0 2 15 28 33 57 19 29 37 60 41 68 4 8 12 24 19 35 7 11
27 47 46 80 19 33 39 63 45 67 6 4 8 8 4 8 -4 0 22 48 58 106 35 59 64 108 64
110 0 2 20 34 43 71 24 38 46 73 48 78 10 25 94 160 101 163 5 2 8 7 8 12 0
15 220 361 246 388 8 7 14 18 14 23 0 20 37 -16 75 -73z m4995 -1526 c0 -11
-53 -113 -61 -118 -5 -3 -9 -14 -9 -24 0 -10 -3 -20 -7 -22 -5 -1 -34 -52 -65
-113 -31 -60 -80 -153 -108 -205 -28 -52 -58 -112 -66 -132 -9 -21 -20 -38
-25 -38 -5 0 -9 -5 -9 -12 0 -13 -96 -188 -146 -265 -19 -28 -34 -54 -34 -56
0 -5 -58 -96 -84 -132 -8 -11 -37 -51 -64 -90 -47 -65 -92 -116 -124 -140 -7
-5 -33 -12 -58 -14 -72 -7 -713 -4 -855 3 -159 8 -243 12 -455 21 -91 4 -169
11 -174 16 -6 6 -6 9 1 9 6 0 16 12 22 28 11 28 15 35 64 109 15 23 27 44 27
47 0 8 74 131 83 137 5 3 7 8 6 10 -3 4 116 210 175 304 17 27 31 52 31 55 1
3 12 23 26 45 14 22 41 66 60 98 19 32 42 71 51 85 10 15 21 34 25 42 4 8 38
65 75 127 37 62 68 117 68 122 0 6 3 11 8 11 4 0 13 13 19 28 7 15 20 37 29
48 17 21 22 21 796 21 428 0 778 -3 778 -5z m4130 -6 c141 -10 260 -27 297
-42 l34 -15 -43 -82 c-24 -45 -47 -85 -53 -89 -7 -5 -7 -8 0 -8 7 0 7 -3 0 -8
-5 -4 -23 -32 -39 -62 -16 -30 -74 -134 -129 -230 -55 -96 -110 -193 -122
-215 -13 -22 -51 -87 -85 -145 -35 -58 -74 -125 -88 -150 -14 -25 -37 -63 -51
-85 -14 -22 -25 -43 -26 -46 0 -4 -14 -28 -31 -55 -17 -27 -44 -70 -59 -97
l-27 -48 -192 0 c-105 0 -198 0 -206 0 -8 0 -37 1 -65 1 -27 1 -68 1 -90 1
-22 0 -47 0 -55 0 -8 0 -154 0 -325 0 -356 -1 -421 2 -487 26 -112 40 -96 135
69 433 105 189 197 346 204 348 5 2 9 11 9 21 0 9 7 26 15 36 9 11 46 72 82
135 37 63 70 117 73 120 4 3 9 12 13 20 3 8 19 36 34 61 15 26 43 72 61 103
19 31 40 62 47 70 11 11 113 13 582 11 312 -2 606 -6 653 -9z"/>
</g>
</svg>
