<?xml version="1.0" standalone="no"?>
<!DOCTYPE svg PUBLIC "-//W3C//DTD SVG 20010904//EN"
 "http://www.w3.org/TR/2001/REC-SVG-20010904/DTD/svg10.dtd">
<svg version="1.0" xmlns="http://www.w3.org/2000/svg"
 width="132.000000pt" height="79.000000pt" viewBox="0 0 132.000000 79.000000"
 preserveAspectRatio="xMidYMid meet">

<g transform="translate(0.000000,79.000000) scale(0.100000,-0.100000)">
<path d="M302 733 c-16 -26 -49 -82 -72 -123 -43 -76 -124 -216 -188 -325 -19
-33 -35 -64 -35 -70 0 -5 26 -54 58 -107 l57 -98 119 0 118 0 41 70 c22 38 44
71 48 74 4 2 26 -28 48 -67 l39 -72 121 -3 121 -3 44 75 c24 41 48 71 52 67 5
-5 25 -37 45 -72 l37 -64 122 -3 122 -3 55 100 c31 54 56 104 56 109 0 6 -13
32 -29 59 -16 26 -55 93 -87 148 -31 55 -78 136 -104 180 -26 44 -59 101 -74
128 l-27 47 -122 0 -122 0 -38 -71 c-21 -38 -43 -69 -48 -67 -4 2 -26 32 -48
68 l-39 65 -120 3 -120 3 -30 -48z m341 -178 c54 -93 117 -203 139 -242 l40
-73 -74 0 -74 0 -134 232 c-74 127 -139 237 -143 245 -7 11 5 13 69 11 l78 -3
99 -170z m370 83 c30 -51 89 -154 132 -228 43 -74 81 -139 86 -145 19 -20 6
-25 -65 -25 l-75 0 -32 58 c-18 31 -55 95 -82 142 -27 47 -68 117 -90 155 -22
39 -49 85 -60 103 l-19 32 75 0 75 0 55 -92z m-519 -187 l136 -233 -36 -65
c-20 -35 -40 -61 -45 -56 -4 4 -33 53 -65 108 -113 198 -126 220 -133 228 -5
5 -54 -71 -111 -167 -56 -97 -103 -176 -105 -176 -2 0 -19 29 -39 64 l-36 64
29 49 c16 26 51 86 78 133 146 252 177 300 184 293 4 -4 68 -113 143 -242z
m298 207 c14 -24 50 -87 81 -140 145 -248 167 -289 167 -305 0 -10 -16 -42
-34 -72 l-33 -53 -55 93 c-31 52 -90 155 -133 229 -42 74 -82 141 -88 148 -8
10 -1 30 24 77 19 36 37 65 41 65 3 0 17 -19 30 -42z m-408 -378 l36 -61 -21
-42 c-12 -23 -33 -59 -47 -79 l-25 -38 -74 0 -75 0 20 33 c10 17 47 80 82 140
34 59 64 107 66 107 2 0 19 -27 38 -60z m405 -151 c-18 -34 -38 -63 -44 -66
-7 -2 -42 -3 -79 -1 l-66 3 37 63 37 62 73 0 74 0 -32 -61z m449 54 c-2 -5
-18 -34 -36 -65 l-34 -58 -74 0 c-84 0 -82 -8 -27 88 l25 42 75 0 c41 0 73 -3
71 -7z"/>
</g>
</svg>
